<svg width="1200" height="630" xmlns="http://www.w3.org/2000/svg">
    <!-- Background -->
    <defs>
        <linearGradient id="bgGradient" x1="0%" y1="0%" x2="100%" y2="100%">
            <stop offset="0%" style="stop-color:#003152;stop-opacity:1" />
            <stop offset="100%" style="stop-color:#0069ae;stop-opacity:1" />
        </linearGradient>
        <pattern id="gridPattern" width="40" height="40" patternUnits="userSpaceOnUse">
            <path d="M 40 0 L 0 0 0 40" fill="none" stroke="rgba(255,255,255,0.1)" stroke-width="1" />
        </pattern>
    </defs>

    <!-- Main background -->
    <rect width="1200" height="630" fill="url(#bgGradient)" />
    <rect width="1200" height="630" fill="url(#gridPattern)" />

    <!-- Decorative elements -->
    <circle cx="150" cy="150" r="300" fill="rgba(0,163,255,0.1)" />
    <circle cx="1050" cy="480" r="200" fill="rgba(255,140,18,0.1)" />

    <!-- Logo -->
    <g transform="translate(100, 120) scale(2)">
        <rect x="5" y="15" width="30" height="30" fill="#00a3ff" rx="2" />
        <rect x="10" y="20" width="8" height="8" fill="white" rx="1" />
        <rect x="22" y="20" width="8" height="8" fill="white" rx="1" />
        <rect x="10" y="32" width="8" height="8" fill="white" rx="1" />
        <rect x="22" y="32" width="8" height="8" fill="white" rx="1" />
        <polygon points="5,15 20,5 35,15" fill="#0084d6" />
    </g>

    <!-- Text -->
    <text x="220" y="140" font-family="'Plus Jakarta Sans', Arial, sans-serif" font-size="60"
        font-weight="bold" fill="white">
        Somalia Apartments
    </text>

    <text x="220" y="220" font-family="'Inter', Arial, sans-serif" font-size="32"
        font-weight="normal" fill="rgba(255,255,255,0.8)">
        Find Your Dream Home in Mogadishu
    </text>

    <!-- Image of building -->
    <g transform="translate(150, 280)">
        <rect x="0" y="0" width="900" height="280" rx="8" fill="rgba(255,255,255,0.1)" />

        <!-- Simplified apartment buildings -->
        <g transform="translate(80, 50)">
            <!-- Building 1 -->
            <rect x="0" y="0" width="160" height="200" fill="#e5e7eb" rx="2" />
            <rect x="20" y="20" width="40" height="40" fill="#d1d5db" rx="1" />
            <rect x="100" y="20" width="40" height="40" fill="#d1d5db" rx="1" />
            <rect x="20" y="80" width="40" height="40" fill="#d1d5db" rx="1" />
            <rect x="100" y="80" width="40" height="40" fill="#d1d5db" rx="1" />
            <rect x="20" y="140" width="40" height="40" fill="#d1d5db" rx="1" />
            <rect x="100" y="140" width="40" height="40" fill="#d1d5db" rx="1" />

            <!-- Building 2 -->
            <rect x="200" y="30" width="140" height="170" fill="#e5e7eb" rx="2" />
            <rect x="220" y="50" width="30" height="30" fill="#d1d5db" rx="1" />
            <rect x="290" y="50" width="30" height="30" fill="#d1d5db" rx="1" />
            <rect x="220" y="100" width="30" height="30" fill="#d1d5db" rx="1" />
            <rect x="290" y="100" width="30" height="30" fill="#d1d5db" rx="1" />
            <rect x="220" y="150" width="30" height="30" fill="#d1d5db" rx="1" />
            <rect x="290" y="150" width="30" height="30" fill="#d1d5db" rx="1" />

            <!-- Building 3 -->
            <rect x="380" y="0" width="180" height="200" fill="#e5e7eb" rx="2" />
            <rect x="400" y="20" width="50" height="40" fill="#d1d5db" rx="1" />
            <rect x="490" y="20" width="50" height="40" fill="#d1d5db" rx="1" />
            <rect x="400" y="80" width="50" height="40" fill="#d1d5db" rx="1" />
            <rect x="490" y="80" width="50" height="40" fill="#d1d5db" rx="1" />
            <rect x="400" y="140" width="50" height="40" fill="#d1d5db" rx="1" />
            <rect x="490" y="140" width="50" height="40" fill="#d1d5db" rx="1" />

            <!-- Building 4 -->
            <rect x="600" y="20" width="150" height="180" fill="#e5e7eb" rx="2" />
            <rect x="620" y="40" width="40" height="30" fill="#d1d5db" rx="1" />
            <rect x="690" y="40" width="40" height="30" fill="#d1d5db" rx="1" />
            <rect x="620" y="90" width="40" height="30" fill="#d1d5db" rx="1" />
            <rect x="690" y="90" width="40" height="30" fill="#d1d5db" rx="1" />
            <rect x="620" y="140" width="40" height="30" fill="#d1d5db" rx="1" />
            <rect x="690" y="140" width="40" height="30" fill="#d1d5db" rx="1" />
        </g>
    </g>

    <!-- Website URL -->
    <text x="600" y="610" font-family="'Inter', Arial, sans-serif" font-size="24"
        font-weight="medium" fill="white" text-anchor="middle">
        www.somaliapartments.com
    </text>
</svg> 